<?xml version="1.0" encoding="UTF-8"?>
<!DOCTYPE svg PUBLIC "-//W3C//DTD SVG 1.1//EN" "http://www.w3.org/Graphics/SVG/1.1/DTD/svg11.dtd">
<svg xmlns="http://www.w3.org/2000/svg" version="1.1" width="500px" height="500px" style="shape-rendering:geometricPrecision; text-rendering:geometricPrecision; image-rendering:optimizeQuality; fill-rule:evenodd; clip-rule:evenodd" xmlns:xlink="http://www.w3.org/1999/xlink">
<g><path style="opacity:0.939" fill="#020000" d="M 232.5,17.5 C 324.641,14.8062 394.475,52.4729 442,130.5C 470.747,184.635 477.08,241.301 461,300.5C 436.431,376.069 386.264,425.902 310.5,450C 234.032,469.711 165.365,454.711 104.5,405C 45.4054,350.737 20.9054,283.571 31,203.5C 46.4747,124.037 90.9747,67.5371 164.5,34C 186.539,25.3225 209.206,19.8225 232.5,17.5 Z"/></g>
<g><path style="opacity:1" fill="#9e011c" d="M 234.5,25.5 C 321.923,23.7805 388.423,59.7805 434,133.5C 468.457,198.516 470.457,264.516 440,331.5C 401.806,403.294 341.973,442.794 260.5,450C 186.329,451.992 126.162,424.159 80,366.5C 38.1547,308.439 26.8214,244.772 46,175.5C 73.8309,96.3353 128.664,47.5019 210.5,29C 218.626,27.6729 226.626,26.5063 234.5,25.5 Z"/></g>
<g><path style="opacity:1" fill="#f28112" d="M 236.5,76.5 C 244.053,75.8819 246.386,79.0486 243.5,86C 236.752,88.9093 233.586,86.7426 234,79.5C 235.045,78.6266 235.878,77.6266 236.5,76.5 Z"/></g>
<g><path style="opacity:1" fill="#f58512" d="M 278.5,76.5 C 279.043,76.56 279.376,76.8933 279.5,77.5C 274.391,87.4207 274.224,97.4207 279,107.5C 283.75,113.327 287.75,119.66 291,126.5C 290.705,135.822 290.705,145.155 291,154.5C 295.955,176.158 305.288,178.158 319,160.5C 322,155.5 325,150.5 328,145.5C 336.789,164.06 337.789,183.06 331,202.5C 329.175,207.986 331.008,210.486 336.5,210C 340.744,207.704 344.244,204.537 347,200.5C 347.207,210.265 346.207,219.932 344,229.5C 342.47,234.892 340.137,239.892 337,244.5C 328.148,217.319 310.648,198.153 284.5,187C 280.888,185.85 277.222,185.017 273.5,184.5C 277.024,168.511 270.858,159.178 255,156.5C 245.952,156.858 239.619,161.191 236,169.5C 235.805,174.418 235.305,179.251 234.5,184C 202.64,193.193 182.14,213.693 173,245.5C 162.26,220.056 159.26,193.723 164,166.5C 167.756,153.647 174.09,142.313 183,132.5C 180.346,146.694 181.346,160.694 186,174.5C 187.793,177.295 189.96,179.795 192.5,182C 199.786,183.73 204.286,180.896 206,173.5C 205.667,161.167 205.333,148.833 205,136.5C 209.035,125.282 216.535,118.282 227.5,115.5C 222.905,123.962 222.405,132.628 226,141.5C 229.81,146.669 234.643,147.835 240.5,145C 241.667,143.167 242.833,141.333 244,139.5C 240.572,117.323 247.405,99.1562 264.5,85C 269.064,81.8898 273.731,79.0565 278.5,76.5 Z"/></g>
<g><path style="opacity:1" fill="#f28212" d="M 290.5,95.5 C 296.33,95.1605 298.83,97.8272 298,103.5C 294.952,107.01 291.619,107.343 288,104.5C 286.779,100.718 287.613,97.7179 290.5,95.5 Z"/></g>
<g><path style="opacity:1" fill="#f48412" d="M 309.5,98.5 C 324.644,116.853 324.144,134.853 308,152.5C 307.027,154.392 306.36,156.392 306,158.5C 305.027,156.608 304.36,154.608 304,152.5C 303.333,145.833 303.333,139.167 304,132.5C 306.31,125.925 308.31,119.258 310,112.5C 310.717,107.78 310.55,103.114 309.5,98.5 Z"/></g>
<g><path style="opacity:1" fill="#f38312" d="M 192.5,110.5 C 203.521,111.375 206.187,116.542 200.5,126C 191.592,129.091 187.092,125.925 187,116.5C 188.36,113.977 190.193,111.977 192.5,110.5 Z"/></g>
<g><path style="opacity:1" fill="#fefcfc" d="M 248.5,161.5 C 262.473,159.649 269.306,165.649 269,179.5C 267.877,182.249 266.377,184.749 264.5,187C 304.252,194.25 327.252,217.75 333.5,257.5C 342.011,259.328 343.677,263.828 338.5,271C 283.167,271.667 227.833,271.667 172.5,271C 166.627,264.718 167.793,259.885 176,256.5C 183.11,217.39 206.276,194.224 245.5,187C 239.896,180.803 239.063,173.969 243,166.5C 244.812,164.7 246.645,163.033 248.5,161.5 Z"/></g>
<g><path style="opacity:1" fill="#9e031d" d="M 316.5,254.5 C 275.847,256.494 234.847,257.161 193.5,256.5C 193.5,255.5 193.5,254.5 193.5,253.5C 199.65,226.517 216.317,210.017 243.5,204C 281.992,200.693 306.325,217.527 316.5,254.5 Z"/></g>
<g><path style="opacity:1" fill="#fdf9f9" d="M 224.5,248.5 C 221.6,249.737 218.433,250.403 215,250.5C 211.979,250.498 209.146,250.164 206.5,249.5C 213.911,232.423 225.578,219.09 241.5,209.5C 237.328,215.094 233.495,221.428 230,228.5C 227.23,234.915 225.396,241.582 224.5,248.5 Z"/></g>
<g><path style="opacity:1" fill="#e4b9c1" d="M 224.5,248.5 C 224.5,249.5 224.5,250.5 224.5,251.5C 218.132,251.83 211.798,251.496 205.5,250.5C 205.624,249.893 205.957,249.56 206.5,249.5C 209.146,250.164 211.979,250.498 215,250.5C 218.433,250.403 221.6,249.737 224.5,248.5 Z"/></g>
<g><path style="opacity:1" fill="#b74156" d="M 193.5,253.5 C 193.5,254.5 193.5,255.5 193.5,256.5C 234.847,257.161 275.847,256.494 316.5,254.5C 317.404,255.209 317.737,256.209 317.5,257.5C 275.833,257.5 234.167,257.5 192.5,257.5C 192.232,255.901 192.566,254.568 193.5,253.5 Z"/></g>
<g><path style="opacity:1" fill="#f7e8eb" d="M 255.5,299.5 C 259.646,299.569 261.98,301.735 262.5,306C 255.545,320.931 257.711,322.431 269,310.5C 271.333,307.167 273.667,303.833 276,300.5C 277.487,302.272 277.82,304.272 277,306.5C 273.541,314.46 267.708,319.793 259.5,322.5C 262.143,326.977 265.643,330.643 270,333.5C 270.617,334.449 270.451,335.282 269.5,336C 267.833,336.667 266.167,336.667 264.5,336C 260.964,332.799 257.797,329.299 255,325.5C 252.814,328.681 250.314,331.515 247.5,334C 244.672,334.969 242.338,334.303 240.5,332C 244.924,329.912 248.424,326.745 251,322.5C 254.742,316.436 256.909,310.102 257.5,303.5C 248.753,307.118 244.419,313.118 244.5,321.5C 241.743,319.912 240.91,317.579 242,314.5C 244.972,308.033 249.472,303.033 255.5,299.5 Z"/></g>
<g><path style="opacity:1" fill="#f3dde0" d="M 303.5,302.5 C 304.5,302.5 305.5,302.5 306.5,302.5C 305.086,308.005 303.086,313.339 300.5,318.5C 300.667,318.833 300.833,319.167 301,319.5C 302.346,316.821 304.346,314.821 307,313.5C 309.528,314.197 310.694,315.864 310.5,318.5C 309.267,324.132 306.601,328.966 302.5,333C 300.597,333.774 298.93,333.44 297.5,332C 302.02,328.122 304.854,323.289 306,317.5C 301.923,321.742 298.423,326.409 295.5,331.5C 293.362,330.571 292.196,328.904 292,326.5C 289.315,330.927 285.482,332.76 280.5,332C 275.723,328.427 275.223,324.26 279,319.5C 280.873,317.291 283.04,315.458 285.5,314C 289.487,313.661 290.987,315.494 290,319.5C 288.163,323.181 285.33,325.515 281.5,326.5C 281.5,327.833 281.5,329.167 281.5,330.5C 286.232,329.29 290.066,326.623 293,322.5C 296.258,315.649 299.758,308.982 303.5,302.5 Z"/></g>
<g><path style="opacity:1" fill="#f5e3e6" d="M 198.5,308.5 C 199.376,308.369 200.043,308.702 200.5,309.5C 199.52,310.981 198.353,312.315 197,313.5C 195.12,311.236 195.62,309.57 198.5,308.5 Z"/></g>
<g><path style="opacity:1" fill="#f7e8eb" d="M 166.5,299.5 C 172.303,299.81 174.47,302.81 173,308.5C 172.422,311.903 171.255,315.07 169.5,318C 174.392,316.149 178.559,312.982 182,308.5C 184.029,305.971 185.862,303.304 187.5,300.5C 189.124,301.869 189.624,303.536 189,305.5C 185.026,313.307 179.193,319.307 171.5,323.5C 174.167,328.167 177.833,331.833 182.5,334.5C 180.004,336.953 177.338,337.12 174.5,335C 171.704,331.886 169.038,328.719 166.5,325.5C 164.733,328.77 162.4,331.603 159.5,334C 156.86,334.839 154.527,334.339 152.5,332.5C 161.414,325.7 167.08,316.7 169.5,305.5C 169.167,304.833 168.833,304.167 168.5,303.5C 162.572,306.927 158.239,311.76 155.5,318C 157.934,321.883 157.101,322.383 153,319.5C 152.792,315.887 153.792,312.554 156,309.5C 159.396,305.935 162.896,302.602 166.5,299.5 Z"/></g>
<g><path style="opacity:1" fill="#f4e2e5" d="M 340.5,302.5 C 341.995,302.415 342.995,303.081 343.5,304.5C 340.767,308.942 338.934,313.609 338,318.5C 339.684,316.649 341.517,314.982 343.5,313.5C 345.375,314.54 346.708,316.04 347.5,318C 346.029,323.946 343.029,328.946 338.5,333C 336.926,333.699 335.593,333.365 334.5,332C 338.477,328.203 340.977,323.703 342,318.5C 338.28,322.713 334.78,327.046 331.5,331.5C 329.869,329.941 329.036,327.941 329,325.5C 325.723,332.065 322.723,332.065 320,325.5C 318.859,327.609 317.359,329.442 315.5,331C 313.633,331.711 312.133,331.211 311,329.5C 310.207,324.411 311.707,320.077 315.5,316.5C 317.882,313.138 320.549,312.805 323.5,315.5C 325.438,314.466 326.772,315.132 327.5,317.5C 322.666,328.961 323.832,329.961 331,320.5C 333.4,314.03 336.567,308.03 340.5,302.5 Z"/></g>
<g><path style="opacity:1" fill="#f5e4e7" d="M 204.5,314.5 C 205.978,314.238 207.311,314.571 208.5,315.5C 205.517,319.773 204.017,324.439 204,329.5C 208.439,325.062 212.106,320.062 215,314.5C 215.944,315.263 216.444,316.263 216.5,317.5C 214.843,324.481 212.343,331.147 209,337.5C 207.277,340.725 204.777,343.058 201.5,344.5C 195.862,343.308 195.528,341.974 200.5,340.5C 202.885,338.116 204.885,335.45 206.5,332.5C 202.422,331.923 200.256,329.59 200,325.5C 198.167,327.333 196.333,329.167 194.5,331C 190.294,331.835 188.294,330.002 188.5,325.5C 188.763,322.972 189.596,320.639 191,318.5C 192.113,316.671 193.613,315.837 195.5,316C 196.022,316.561 196.355,317.228 196.5,318C 195.026,321.114 193.693,324.281 192.5,327.5C 192.733,328.932 193.4,329.432 194.5,329C 199.211,325.065 202.544,320.232 204.5,314.5 Z"/></g>
<g><path style="opacity:1" fill="#ab2b38" d="M 287.5,316.5 C 287.946,319.923 286.446,322.589 283,324.5C 283.671,321.504 285.171,318.837 287.5,316.5 Z"/></g>
<g><path style="opacity:1" fill="#b33d47" d="M 321.5,317.5 C 322.525,317.897 322.692,318.563 322,319.5C 320,322.167 318,324.833 316,327.5C 315.333,326.5 315.333,325.5 316,324.5C 317.666,322.004 319.5,319.671 321.5,317.5 Z"/></g>
<g><path style="opacity:1" fill="#f5e4e7" d="M 223.5,317.5 C 223.085,315.052 224.085,313.719 226.5,313.5C 228.948,314.114 230.615,315.614 231.5,318C 230.576,321.781 229.076,325.281 227,328.5C 221.824,334.331 218.324,333.498 216.5,326C 216.615,323.268 217.448,320.768 219,318.5C 220.356,317.62 221.856,317.286 223.5,317.5 Z"/></g>
<g><path style="opacity:1" fill="#a21325" d="M 223.5,317.5 C 224.473,318.791 225.473,318.791 226.5,317.5C 227.346,322.152 225.679,325.819 221.5,328.5C 221.167,327.667 220.833,326.833 220.5,326C 221.393,323.064 222.393,320.231 223.5,317.5 Z"/></g>
<g><path style="opacity:1" fill="#f6e6e8" d="M 193.5,372.5 C 192.957,372.44 192.624,372.107 192.5,371.5C 193.64,369.922 194.14,368.256 194,366.5C 191.894,368.377 190.561,370.71 190,373.5C 189.31,374.738 188.81,374.738 188.5,373.5C 191.168,364.014 196.835,356.847 205.5,352C 209.166,350.729 211.666,351.896 213,355.5C 212.743,360.241 210.91,364.408 207.5,368C 206.035,368.601 205.035,368.101 204.5,366.5C 210.313,354.18 208.48,353.18 199,363.5C 197.156,366.528 195.322,369.528 193.5,372.5 Z"/></g>
<g><path style="opacity:1" fill="#e6bcc2" d="M 193.5,372.5 C 192.676,375.764 192.342,379.098 192.5,382.5C 191.686,380.369 191.186,378.036 191,375.5C 189.855,376.684 188.688,376.684 187.5,375.5C 187.328,374.508 187.662,373.842 188.5,373.5C 188.81,374.738 189.31,374.738 190,373.5C 190.561,370.71 191.894,368.377 194,366.5C 194.14,368.256 193.64,369.922 192.5,371.5C 192.624,372.107 192.957,372.44 193.5,372.5 Z"/></g>
<g><path style="opacity:1" fill="#f8ebed" d="M 187.5,375.5 C 188.688,376.684 189.855,376.684 191,375.5C 191.186,378.036 191.686,380.369 192.5,382.5C 193.946,383.613 195.613,383.78 197.5,383C 201.61,380.191 205.443,377.025 209,373.5C 206.97,380.173 202.636,384.839 196,387.5C 189.482,386.144 186.649,382.144 187.5,375.5 Z"/></g>
<g><path style="opacity:1" fill="#f4e2e5" d="M 268.5,352.5 C 270.252,352.418 271.252,353.251 271.5,355C 270.246,359.008 268.579,362.842 266.5,366.5C 271.069,366.217 275.069,364.217 278.5,360.5C 280.186,364.195 279.186,367.029 275.5,369C 272.213,370.304 269.213,371.97 266.5,374C 268.433,378.268 271.433,381.601 275.5,384C 273.167,386 270.833,386 268.5,384C 265.979,381.78 263.812,379.28 262,376.5C 261.061,379.121 260.228,381.788 259.5,384.5C 258.066,382.78 257.233,380.78 257,378.5C 254.834,381.507 252.001,383.507 248.5,384.5C 245.913,383.256 243.58,381.589 241.5,379.5C 237.771,383.771 234.605,383.438 232,378.5C 230.691,380.976 228.858,382.976 226.5,384.5C 225.252,383.96 224.085,383.293 223,382.5C 222.578,379.764 222.578,377.098 223,374.5C 214.695,385.947 212.029,384.614 215,370.5C 217.373,364.805 220.54,359.638 224.5,355C 226.237,354.388 227.237,355.054 227.5,357C 223.658,363.173 220.824,369.673 219,376.5C 221.045,373.577 223.212,370.743 225.5,368C 228.478,367.14 229.812,368.307 229.5,371.5C 228.317,374.828 227.483,378.162 227,381.5C 231.28,376.752 235.114,371.752 238.5,366.5C 239.72,366.887 240.387,367.72 240.5,369C 239.47,371.56 238.303,374.06 237,376.5C 236.219,377.944 236.386,379.277 237.5,380.5C 241.86,377.449 245.026,373.449 247,368.5C 249.762,364.508 252.929,363.841 256.5,366.5C 250.562,370.377 247.895,375.71 248.5,382.5C 251.947,381.361 254.781,379.361 257,376.5C 260.045,368.078 263.879,360.078 268.5,352.5 Z"/></g>
<g><path style="opacity:1" fill="#f5e3e6" d="M 242.5,359.5 C 243.376,359.369 244.043,359.702 244.5,360.5C 243.52,361.981 242.353,363.315 241,364.5C 239.12,362.236 239.62,360.57 242.5,359.5 Z"/></g>
<g><path style="opacity:1" fill="#f5e2e5" d="M 285.5,364.5 C 289.976,364.822 291.476,367.156 290,371.5C 288.101,374.863 285.268,376.863 281.5,377.5C 281.5,378.833 281.5,380.167 281.5,381.5C 284.179,381.327 286.513,380.327 288.5,378.5C 292.56,374.708 295.893,370.374 298.5,365.5C 299.72,365.887 300.387,366.72 300.5,368C 296.191,379.776 297.024,380.276 303,369.5C 304.389,367.773 306.056,366.439 308,365.5C 309.732,365.734 310.566,366.734 310.5,368.5C 304.097,383.056 305.597,384.056 315,371.5C 315.167,371.833 315.333,372.167 315.5,372.5C 312.848,376.482 309.848,380.149 306.5,383.5C 305.252,382.96 304.085,382.293 303,381.5C 302.747,378.8 302.747,376.133 303,373.5C 301.382,376.943 299.215,379.943 296.5,382.5C 294.171,381.229 293.005,379.229 293,376.5C 291.167,378.333 289.333,380.167 287.5,382C 279.177,384.345 276.01,381.179 278,372.5C 280.028,369.308 282.528,366.641 285.5,364.5 Z"/></g>
<g><path style="opacity:1" fill="#ac2e3a" d="M 286.5,368.5 C 287.376,368.369 288.043,368.702 288.5,369.5C 287.483,372.696 285.483,374.529 282.5,375C 284.058,372.948 285.392,370.781 286.5,368.5 Z"/></g>
</svg>
